<svg width="24" height="24" viewBox="0 0 24 24" fill="none" xmlns="http://www.w3.org/2000/svg">
<path d="M6.78852 2.26703L8.21137 1.83846C8.85908 1.64305 9.55576 1.69003 10.1714 1.97062C10.787 2.25122 11.2794 2.74625 11.5568 3.36332L12.4422 5.33303C12.6808 5.86365 12.7473 6.45566 12.6323 7.02598C12.5173 7.5963 12.2266 8.11631 11.8011 8.51303L10.2539 9.9556C10.2354 9.97399 10.2198 9.99509 10.2077 10.0182C10.0457 10.349 10.2917 11.2327 11.0622 12.5682C11.9314 14.0733 12.6025 14.6682 12.9137 14.5765L14.9442 13.955C15.5003 13.7852 16.0956 13.7937 16.6467 13.9792C17.1977 14.1647 17.6769 14.518 18.0171 14.9896L19.2754 16.7322C19.6704 17.2793 19.8534 17.9513 19.7903 18.6232C19.7273 19.2951 19.4225 19.9212 18.9325 20.3853L17.8499 21.4096C17.4735 21.7662 17.0164 22.0264 16.5175 22.1681C16.0187 22.3097 15.4931 22.3286 14.9854 22.223C11.9708 21.5956 9.26995 19.1682 6.85966 14.9939C4.44852 10.817 3.6968 7.25989 4.66537 4.33446C4.82751 3.84469 5.10515 3.40115 5.47484 3.0413C5.84453 2.68146 6.29455 2.41589 6.78852 2.26703ZM7.16137 3.49789C6.86498 3.58716 6.59443 3.74647 6.37259 3.96234C6.15074 4.17822 5.98412 4.44432 5.8868 4.73817C5.05195 7.25903 5.72823 10.4613 7.97395 14.351C10.2179 18.2382 12.6505 20.4239 15.2485 20.9639C15.5531 21.0271 15.8685 21.0157 16.1678 20.9306C16.467 20.8455 16.7413 20.6893 16.9671 20.4753L18.0488 19.4519C18.3127 19.2021 18.477 18.8649 18.511 18.5031C18.5451 18.1413 18.4466 17.7794 18.2339 17.4847L16.9757 15.7413C16.7925 15.4874 16.5346 15.2972 16.2379 15.1973C15.9413 15.0974 15.6208 15.0928 15.3214 15.1842L13.2857 15.8073C12.1594 16.1425 11.0999 15.2039 9.94966 13.2102C8.97509 11.5233 8.63737 10.3045 9.05394 9.45332C9.13509 9.2876 9.24309 9.1416 9.37794 9.01532L10.9251 7.57274C11.1543 7.35913 11.3109 7.07909 11.3729 6.77194C11.4348 6.46479 11.399 6.14595 11.2705 5.86017L10.3842 3.89132C10.2349 3.55897 9.96966 3.29234 9.63811 3.14123C9.30655 2.99013 8.93133 2.96487 8.58252 3.07017L7.16137 3.49789Z" fill="#F6F6F8"/>
</svg>
