<svg width="206" height="41" viewBox="0 0 206 41" fill="none" xmlns="http://www.w3.org/2000/svg">
<g clip-path="url(#clip0_119_845)">
<path d="M68.8661 9.67139H67.7741C66.7125 9.67139 66.2514 9.97709 65.5294 11.1L59.7055 20.2358L57.291 11.194C56.9998 10.1182 56.6843 9.67139 55.4771 9.67139H54.5549C53.3719 9.67139 52.5953 10.3533 52.377 11.5703L49.6713 26.2851C49.4771 27.3845 49.9867 27.9724 50.9755 27.9724H51.3821C52.4255 27.9724 52.8805 27.4786 53.0746 26.3792L55.2465 14.4744L57.3516 22.4403C57.5215 23.2399 57.6914 23.7748 59.2626 23.7748C60.5912 23.7748 60.9067 23.3281 61.3677 22.5814L66.5183 14.3804L64.3464 26.2851C64.1523 27.408 64.6619 27.9724 65.6265 27.9724H66.0633C67.1068 27.9724 67.5618 27.455 67.756 26.3792L70.4677 11.6173C70.6861 10.4474 70.1037 9.67139 68.8721 9.67139H68.8661Z" fill="#E0E0E0"/>
<path d="M85.1188 20.212C84.9913 16.6436 82.4798 14.0039 78.2755 14.0039C73.4647 14.0039 70.5163 17.8017 70.6559 21.9698C70.8014 25.7676 73.5132 28.2073 77.499 28.2073C82.4372 28.2073 85.2643 24.3861 85.1188 20.2179V20.212ZM77.5233 25.5971C75.2483 25.5971 73.8287 24.0039 73.7498 21.8464C73.6527 19.0598 75.5395 16.5789 78.2453 16.5789C80.32 16.5789 81.9641 18.1721 82.0368 20.3531C82.1339 23.3043 80.2229 25.5971 77.5172 25.5971H77.5233Z" fill="#E0E0E0"/>
<path d="M95.8753 14.0039C93.8672 14.0039 92.2778 14.9621 91.2344 16.5847C91.3314 14.7564 90.294 14.2155 89.2263 14.2155C88.7228 14.2155 88.3345 14.3331 88.3042 14.3978L86.1323 26.3731C85.9139 27.6194 86.6358 27.9663 87.5579 27.9663H87.9462C88.9594 27.9663 89.3719 27.5665 89.5903 26.3731L90.8946 19.1832C91.841 17.59 92.8785 16.8434 94.4739 16.8434C96.0694 16.8434 97.0402 17.7781 97.0826 19.3243C97.1069 19.724 97.0098 20.2355 96.9127 20.8234L95.8935 26.3731C95.6751 27.6194 96.4031 27.9663 97.3192 27.9663H97.7075C98.7267 27.9663 99.1331 27.5665 99.3516 26.3731L100.462 20.259C100.583 19.5771 100.68 18.9657 100.656 18.4307C100.559 15.8322 98.7934 14.0039 95.8693 14.0039H95.8753Z" fill="#E0E0E0"/>
<path d="M157.384 14.0039C155.74 14.0039 154.526 14.9151 153.684 16.5847C153.805 14.7564 152.767 14.2155 151.706 14.2155C151.172 14.2155 150.814 14.3331 150.783 14.3978L148.581 26.3731C148.363 27.6194 149.213 27.9663 150.129 27.9663H150.511C151.384 27.9663 151.822 27.5665 152.04 26.3731L152.762 22.3695C153.32 19.2537 154.503 17.0727 156.438 17.0727C157.384 17.0727 157.96 17.4489 158.373 17.8722C158.421 17.9192 159.872 17.3784 159.823 15.7146C159.775 14.6858 158.707 14.0039 157.378 14.0039H157.384Z" fill="#E0E0E0"/>
<path d="M174.19 14.2155C172.843 14.2155 172.09 14.8504 171.654 16.5142C170.787 14.9445 169.015 14.0039 166.964 14.0039C162.59 14.0039 159.544 17.7781 159.544 22.0638C159.544 25.5971 161.789 28.2014 165.32 28.2014C167.474 28.2014 169.143 27.3313 170.204 25.5971C170.058 27.4019 170.423 27.9663 171.75 27.9663C172.958 27.9663 173.347 27.543 173.468 26.2555C173.631 23.8863 174.456 20.0239 175.427 14.6094C175.452 14.5153 174.894 14.2155 174.19 14.2155ZM166.073 25.6029C163.943 25.6029 162.711 24.2919 162.711 21.9698C162.711 19.2537 164.355 16.5377 167.401 16.5377C169.87 16.5377 170.913 18.2955 170.913 20.2355C170.913 22.6752 169.215 25.6029 166.079 25.6029H166.073Z" fill="#E0E0E0"/>
<path d="M194.932 14.0039C192.541 14.0039 190.94 15.1973 189.829 16.9316C189.271 15.1032 187.652 14.0039 185.576 14.0039C183.763 14.0039 182.167 14.8446 181.075 16.4142C181.123 14.727 180.111 14.2155 179.067 14.2155C178.557 14.2155 178.193 14.3331 178.145 14.3978L175.973 26.3731C175.755 27.6194 176.477 27.9663 177.399 27.9663H177.787C178.66 27.9663 179.219 27.6135 179.431 26.3731L180.784 18.948C181.779 17.4665 182.695 16.8434 184.169 16.8434C185.644 16.8434 186.493 17.8722 186.493 19.4419C186.493 19.7005 186.469 19.9827 186.42 20.2649L185.333 26.3789C185.115 27.6253 185.862 27.9721 186.759 27.9721H187.123C188.016 27.9721 188.574 27.5959 188.792 26.3789L190.144 18.9539C191.134 17.4724 192.08 16.8493 193.53 16.8493C194.98 16.8493 195.92 17.6664 195.92 19.3302C195.92 19.7299 195.848 20.2414 195.751 20.8293L194.737 26.3789C194.519 27.6253 195.247 27.9721 196.163 27.9721H196.551C197.57 27.9721 197.977 27.5724 198.189 26.3789L199.299 20.2649C199.42 19.5829 199.494 18.9715 199.494 18.4366C199.494 15.7205 197.613 14.0098 194.926 14.0098L194.932 14.0039Z" fill="#E0E0E0"/>
<path d="M116.423 20.0299C116.423 18.178 116.04 16.9376 115.167 15.8559C114.227 14.686 112.485 13.9805 110.453 13.9805C104.314 13.9805 102.112 18.3603 102.112 22.1816C102.112 26.0029 104.817 28.2192 108.979 28.2192C113.141 28.2192 115.483 26.4203 115.483 24.9917C115.483 24.0275 114.785 23.6983 113.984 23.6337C112.898 24.9917 111.375 25.6442 109.318 25.6442C107.505 25.6442 105.333 24.9682 105.188 21.8288H114.639C115.652 21.8288 116.429 21.2645 116.429 20.0299H116.423ZM113.378 19.5831H105.521C106.267 17.6431 108.015 16.4438 110.241 16.4438C111.351 16.4438 112.225 16.7495 112.777 17.355C113.256 17.8959 113.45 18.6425 113.378 19.5831Z" fill="#E0E0E0"/>
<path d="M145.731 18.172H140.118C139.451 18.172 139.13 18.3131 138.918 18.5247C138.578 18.8774 138.408 19.6711 138.408 20.0238C138.432 20.5882 138.935 20.9115 139.834 20.9115H143.82C143.262 23.6099 141.502 25.4794 138.451 25.4794C135.399 25.4794 133.105 23.51 132.984 20.1649C132.838 15.9439 135.714 12.4812 139.803 12.4812C142.194 12.4812 144.056 13.7216 144.832 15.3619C144.929 15.4794 147.149 15.4794 147.083 13.6511C147.059 12.9985 146.671 12.2225 145.943 11.57C144.76 10.4413 142.558 9.45947 139.634 9.45947C135.527 9.45947 132.28 11.664 130.588 14.8269C130.588 14.8034 130.564 14.8034 130.564 14.8034C130.224 14.3801 129.671 14.1684 129.138 14.1684C128.222 14.1684 127.64 14.4506 126.747 15.9497L122.374 23.3748L120.724 15.9674C120.414 14.5858 119.899 14.1626 118.989 14.1626C117.927 14.1626 117.053 14.9092 117.102 15.0973L120.22 27.0726L116.956 32.1814C116.617 32.7457 116.592 33.4689 117.823 33.4689H118.504C119.784 33.4689 120.196 32.7163 120.827 31.6875L129.63 17.2784C129.362 18.2837 129.241 19.3654 129.29 20.4647C129.459 25.3148 132.815 28.2131 137.753 28.2131C140.095 28.2131 141.957 27.3489 142.994 26.032C142.921 27.4371 143.698 28.0015 144.735 28.0015C145.318 28.0015 145.725 27.8134 145.725 27.7193L147.149 19.965C147.369 18.7716 146.907 18.1602 145.725 18.1602L145.731 18.172Z" fill="#E0E0E0"/>
<path d="M203.188 26.4787C203.297 26.6551 203.357 26.7256 203.515 26.7315C203.527 26.7315 203.546 26.9432 203.291 26.9432C203.139 26.9432 203.042 26.8785 202.878 26.5963L202.581 26.0848H202.314L202.18 26.7786C202.156 26.8844 202.108 26.9373 202.005 26.9373H201.956C201.859 26.9373 201.81 26.8785 201.828 26.7668L202.186 24.962C202.205 24.8385 202.289 24.7739 202.411 24.7739H202.945C203.448 24.7739 203.715 24.9679 203.721 25.3324C203.727 25.7733 203.436 26.0437 202.933 26.0613L203.194 26.4846L203.188 26.4787ZM202.853 25.8085C203.182 25.8085 203.363 25.6381 203.357 25.3617C203.357 25.156 203.199 25.0443 202.914 25.0443H202.501L202.35 25.8027H202.847L202.853 25.8085Z" fill="#F6F6F8"/>
<path d="M202.763 24.1977C203.776 24.1977 204.595 24.9914 204.595 25.9732C204.595 26.9549 203.776 27.7486 202.763 27.7486C201.75 27.7486 200.931 26.9491 200.931 25.9732C200.931 24.9973 201.75 24.1977 202.763 24.1977ZM202.763 23.9038C201.586 23.9038 200.634 24.8327 200.634 25.9732C200.634 27.1137 201.586 28.0425 202.763 28.0425C203.94 28.0425 204.898 27.1137 204.898 25.9732C204.898 24.8327 203.94 23.9038 202.763 23.9038Z" fill="#F6F6F8"/>
<path d="M21.7403 40.5C33.1387 40.5 42.379 31.5457 42.379 20.5C42.379 9.45431 33.1387 0.5 21.7403 0.5C10.3418 0.5 1.10156 9.45431 1.10156 20.5C1.10156 31.5457 10.3418 40.5 21.7403 40.5Z" fill="white"/>
<path d="M42.3729 20.5C42.3729 31.5464 33.1334 40.5 21.7342 40.5C10.335 40.5 1.10156 31.5406 1.10156 20.5C1.10156 17.4606 1.80529 14.5741 3.06109 11.9932C2.22389 14.045 1.84776 16.0732 1.84776 17.978C1.84776 27.0315 9.39466 28.3483 12.604 28.3131C17.4815 28.266 23.1902 25.9556 27.995 21.664C27.995 21.664 27.3762 25.0385 27.1881 26.0791C27.0062 27.0902 27.6856 27.978 28.7291 27.9838H29.1598C30.2397 27.9838 31.0041 27.1314 31.1982 26.0791L32.9272 16.6434C33.1334 15.597 32.4237 14.7446 31.3438 14.7446H21.5887C20.5027 14.7446 19.5138 15.3031 19.3197 16.3554C19.3076 16.4142 19.253 16.714 19.2409 16.7845C19.0892 17.7898 19.8051 18.5482 20.8424 18.5482H25.9323C25.8535 18.6246 25.7746 18.6952 25.6897 18.7775C22.1832 21.9991 17.8577 23.7569 14.2722 23.7569C10.6869 23.7569 6.68894 21.57 6.68894 16.6434C6.67681 6.42593 16.5655 0.5 21.7403 0.5C33.1153 0.5 42.379 9.45356 42.379 20.5H42.3729Z" fill="#E42313"/>
</g>
<defs>
<clipPath id="clip0_119_845">
<rect width="205" height="40" fill="white" transform="translate(0.5 0.5)"/>
</clipPath>
</defs>
</svg>
