<svg width="101" height="41" viewBox="0 0 101 41" fill="none" xmlns="http://www.w3.org/2000/svg">
<g clip-path="url(#clip0_119_858)">
<path d="M0.5 25.7243V35.19H9.76219V26.8875C9.76219 23.1951 12.4897 20.8153 19.1238 20.6445V13.6973C6.93524 13.8573 0.5 18.5742 0.5 25.7243Z" fill="#FF6100"/>
<path d="M54.0277 13.3881C52.0743 13.3378 50.128 13.5891 48.309 14.1263C46.49 14.6636 44.837 15.4754 43.4523 16.5116C42.0676 17.5479 40.9805 18.7865 40.2584 20.1509C39.5362 21.5152 39.1942 22.9764 39.2537 24.444C39.2537 30.751 44.3962 34.8809 53.0901 35.4999L59.1702 32.0636L59.3691 32.1383V35.1904H68.6881V24.444C68.6881 17.7529 62.8353 13.3561 54.0277 13.3881ZM54.0277 28.702C53.2848 28.7145 52.5464 28.6117 51.8588 28.3999C51.1712 28.1882 50.5492 27.872 50.0317 27.4713C49.5143 27.0706 49.1126 26.5939 48.8518 26.0712C48.5909 25.5484 48.4766 24.9908 48.5159 24.4333C48.4766 23.8758 48.5909 23.3183 48.8518 22.7955C49.1126 22.2728 49.5143 21.7961 50.0317 21.3954C50.5492 20.9947 51.1712 20.6785 51.8588 20.4667C52.5464 20.255 53.2848 20.1521 54.0277 20.1647C54.7648 20.1544 55.4966 20.2595 56.1766 20.4733C56.8567 20.687 57.4701 21.0048 57.9778 21.4062C58.4855 21.8077 58.8765 22.2842 59.1258 22.8053C59.3751 23.3265 59.4773 23.8809 59.4259 24.4333C59.473 24.985 59.3677 25.5381 59.1169 26.0578C58.866 26.5775 58.4748 27.0526 57.968 27.4534C57.4611 27.8542 56.8495 28.172 56.1715 28.3869C55.4934 28.6017 54.7636 28.709 54.0277 28.702Z" fill="#FF6100"/>
<path d="M34.5083 13.6973H25.2461V35.2007H34.5083V13.6973Z" fill="#FF6100"/>
<path d="M29.8772 1.5C28.9662 1.49967 28.0664 1.65103 27.2425 1.94319C26.4186 2.23535 25.6911 2.66104 25.1125 3.18965C24.5338 3.71826 24.1182 4.33664 23.8957 5.00032C23.6732 5.664 23.6492 6.35647 23.8256 7.02794C24.1699 8.12081 25.03 9.08285 26.2465 9.73574C27.4629 10.3886 28.9531 10.6881 30.441 10.5787C31.9289 10.4693 33.3136 9.95835 34.3383 9.14062C35.3631 8.32289 35.9585 7.25381 36.0142 6.13151C36.0164 5.52346 35.857 4.92119 35.5454 4.36001C35.0798 3.51516 34.2918 2.79274 33.2806 2.28378C32.2694 1.77482 31.0802 1.50211 29.863 1.5H29.8772Z" fill="#FF6100"/>
</g>
<defs>
<clipPath id="clip0_119_858">
<rect width="100" height="40" fill="white" transform="translate(0.5 0.5)"/>
</clipPath>
</defs>
</svg>
