<svg width="206" height="59" viewBox="0 0 206 59" fill="none" xmlns="http://www.w3.org/2000/svg">
<path d="M25.6282 38.9998C27.4259 42.9398 30.3669 42.9398 32.1567 38.9998L33.158 36.7998L24.1696 17.0498H15.6384L25.6282 38.9998Z" fill="#FFDD00"/>
<path d="M44.567 30.56C43.9126 31.99 42.3672 31.99 41.7128 30.56L35.5549 17.05H27.0159L37.0214 39C38.8191 42.94 41.7522 42.94 43.5499 39L50.2439 24.29L46.9482 17.04H38.417L44.567 30.56Z" fill="#FFDD00"/>
<path d="M59.3744 39.09H62.2838L62.3075 38.97C64.1052 30.52 64.8384 26.91 65.138 24.67C65.4298 26.9 66.1315 30.56 67.8503 38.97L67.874 39.09H70.8465L74.9859 19.77H72.2736L72.25 19.89C70.4523 28.66 69.7663 32.21 69.4509 34.48C69.0882 32.05 68.3077 28.04 66.6282 19.89L66.6046 19.77H63.774L63.7503 19.89C62 28.58 61.2667 32.3 60.9513 34.71C60.6044 32.36 59.8396 28.46 58.0892 19.89L58.0655 19.77H55.2507L59.3428 38.98L59.3744 39.09Z" fill="white"/>
<path d="M79.5906 39.3601C81.7904 39.3601 83.8719 37.8401 84.7077 35.5701L82.6971 34.2701H82.6577L82.6183 34.3601C82.3738 35.0001 81.4829 36.4901 79.6142 36.4901C77.919 36.4901 76.626 35.1201 76.4288 33.1301H85.0783V32.9801C85.1335 30.2701 84.55 28.0501 83.3988 26.5601C82.4054 25.2601 81.0256 24.5801 79.425 24.5801C77.8244 24.5801 76.3973 25.3401 75.3644 26.7101C74.3394 28.0701 73.7717 29.9501 73.7717 31.9901C73.7717 36.3301 76.1686 39.3601 79.5906 39.3601ZM79.425 27.3901C81.0256 27.3901 82.2477 28.6901 82.3738 30.5001H76.4288C76.6102 28.6901 77.8481 27.3901 79.425 27.3901Z" fill="white"/>
<path d="M90.5501 39.3601C93.3807 39.3601 95.1389 37.6901 95.1389 35.0001C95.1389 31.8101 92.8524 31.0601 91.0153 30.4501C89.7459 30.0301 88.6499 29.6701 88.6499 28.6501C88.6499 27.8301 89.3359 27.2501 90.3136 27.2501C91.3859 27.2501 92.127 27.9701 92.2532 29.1201L92.332 29.7001H92.3793L94.6343 29.1601C94.6343 26.4801 92.7657 24.6001 90.3372 24.6001C87.9088 24.6001 86.0953 26.3501 86.0953 28.8501C86.0953 31.8801 88.3109 32.6301 90.0928 33.2301C91.3859 33.6701 92.4976 34.0501 92.4976 35.1101C92.4976 36.0401 91.7801 36.6101 90.6289 36.6101C89.2412 36.6101 88.3109 35.7901 88.1926 34.4701L88.1689 34.2501L85.7799 34.8201C85.7957 37.7901 88.3818 39.3601 90.5501 39.3601Z" fill="white"/>
<path d="M97.1575 36.4603C97.1575 38.0603 97.9538 39.3603 99.2784 39.3603C100.918 39.3603 101.399 39.0903 101.399 39.0903V36.4003C101.399 36.4003 100.911 36.5003 100.311 36.5003C99.925 36.5003 99.649 36.2003 99.649 35.7603V27.6003H101.384L101.36 24.8803H99.6569V20.8403L97.1653 21.6303V24.8803H95.8644V27.6003H97.1653V36.4603H97.1575Z" fill="white"/>
<path d="M116.696 26.6801V24.8801H114.504V39.0901H117.137L117.113 30.4001C117.145 29.5301 117.382 28.8601 117.799 28.4101C118.351 27.8201 119.219 27.6201 120.362 27.8201L120.496 27.8401L120.52 24.8801L120.409 24.8601C118.84 24.5801 117.413 25.1901 116.696 26.6801Z" fill="white"/>
<path d="M127.687 24.5903C126.102 24.5903 124.62 25.3903 123.878 26.9103V24.8803H121.6V39.0903H124.257V31.4603C124.257 29.0103 125.266 27.5503 126.961 27.5503C128.12 27.5503 129.5 28.1903 129.5 31.2503V39.0903H132.157V30.7903C132.157 26.2203 129.839 24.5903 127.687 24.5903Z" fill="white"/>
<path d="M146.436 31.09C146.436 34.37 145.206 36.18 142.983 36.18C140.759 36.18 139.553 34.37 139.553 31.09V19.77H136.872V31.01C136.872 36.24 139.159 39.36 142.983 39.36C146.807 39.36 149.093 36.24 149.093 31.01V19.77H146.436V31.09Z" fill="white"/>
<path d="M156.765 24.5903C155.18 24.5903 153.69 25.3903 152.957 26.9103V24.8803H150.67V39.0903H153.328V31.4603C153.328 29.0103 154.337 27.5503 156.032 27.5503C157.191 27.5503 158.571 28.1903 158.571 31.2503V39.0903H161.228V30.7903C161.236 26.2203 158.926 24.5903 156.765 24.5903Z" fill="white"/>
<path d="M165.517 24.8804H162.884V39.0904H165.517V24.8804Z" fill="white"/>
<path d="M164.208 19.6401C163.349 19.6401 162.671 20.4801 162.671 21.5601C162.671 22.6401 163.357 23.4501 164.208 23.4501C165.06 23.4501 165.722 22.6001 165.722 21.5601C165.722 20.5001 165.044 19.6401 164.208 19.6401Z" fill="white"/>
<path d="M172.653 24.5903C171.013 24.5903 169.515 25.3403 168.426 26.6903C167.346 28.0503 166.747 29.9203 166.747 31.9703C166.747 36.2503 169.231 39.3603 172.653 39.3603C176.075 39.3603 178.574 36.2503 178.574 31.9703C178.574 29.9203 177.975 28.0403 176.895 26.6903C175.806 25.3303 174.301 24.5903 172.653 24.5903ZM172.653 36.2903C170.752 36.2903 169.325 34.4303 169.325 31.9703C169.325 29.5103 170.752 27.6503 172.653 27.6503C174.553 27.6503 176.019 29.5103 176.019 31.9703C176.019 34.4303 174.569 36.2903 172.653 36.2903Z" fill="white"/>
<path d="M185.891 24.5903C184.306 24.5903 182.824 25.3903 182.083 26.9103V24.8803H179.796V39.0903H182.453V31.4603C182.453 29.0103 183.462 27.5503 185.158 27.5503C186.317 27.5503 187.697 28.1903 187.697 31.2503V39.0903H190.354V30.7903C190.362 26.2203 188.051 24.5903 185.891 24.5903Z" fill="white"/>
<path d="M107.715 24.5903C106.13 24.5903 104.687 25.3503 103.654 26.7203C102.629 28.0803 102.062 29.9603 102.062 32.0003C102.062 36.3303 104.451 39.3603 107.88 39.3603C110.08 39.3603 112.162 37.8403 112.998 35.5703L110.987 34.2703H110.948L110.908 34.3603C110.664 35.0003 109.773 36.4903 107.904 36.4903C106.209 36.4903 104.916 35.1203 104.719 33.1303H113.368V32.9803C113.423 30.2703 112.84 28.0503 111.689 26.5603C110.695 25.2703 109.315 24.5903 107.715 24.5903ZM104.711 30.5003C104.892 28.6903 106.13 27.3903 107.715 27.3903C109.3 27.3903 110.538 28.6903 110.664 30.5003H104.711Z" fill="white"/>
</svg>
